<svg version="1" xmlns="http://www.w3.org/2000/svg" width="346.667" height="346.667" viewBox="0 0 260.000000 260.000000"><path d="M200.3 41.7c-1.2.2-3.4 1.8-4.8 3.4-3.1 3.8-3.3 8.4-.6 19.5 1.1 4.3 2.2 9.4 2.5 11.3l.6 3.3-3.8-2.8c-2-1.6-6.7-5.9-10.3-9.6-6.3-6.4-6.9-6.8-11.2-6.8-6 0-7.5.7-9.2 4.1-1.9 3.6-1.9 7.9.1 10.7 2.7 3.9 6.7 5.2 16 5.2 8.2 0 16.4 1.5 16.4 3 0 1.4-7.5 5.9-14.1 8.5-8.1 3.2-11.9 6.9-12.6 12.3-.5 3.6-.2 4.5 2.5 7.2 2.4 2.4 3.9 3 7.2 3 5.8 0 10.1-4.4 12.4-12.5 1.8-6.2 6.4-15.5 7.6-15.5.4 0 1.5 3.7 2.4 8.2 3.9 18.8 3.9 18.9 8.6 22.1 4.8 3.3 11.7 1.1 14-4.3 2.7-6.5-1-12.1-12.3-18.9-3.4-2.1-8.7-7.8-8.7-9.4 0-1.2 10.4-.7 16 .8 7 1.9 11.4 1.9 15 0 3-1.6 6-6.1 6-9 0-3.2-3-7.3-6.6-9-4.8-2.3-9.2-1-16.2 4.5-5.1 4.1-13.9 8.6-14.9 7.7-1.1-1.2 1.1-6.9 4.8-12.7 5.2-8 6.7-13.6 4.9-18-1.9-4.6-6.7-7.2-11.7-6.3zM87.9 144.6c-28.2 33.9-53.3 63.3-55.6 65.4-2.3 2-6 4.2-8.2 4.9-2.4.7-4.1 1.8-4.1 2.6 0 1.3 3.1 1.5 19.5 1.5 16 0 19.5-.3 19.5-1.4 0-.8-1.2-1.7-2.7-2.1-5.1-1.2-7.3-3.3-7.3-6.8 0-4.6 2.2-8.1 13-21.2l9.5-11.5h20.2c18.7 0 20.3.1 20.3 1.7-.2 10.4-2.3 27.1-3.9 30.8-2.2 4.9-3.7 6-10.3 6.9-3.2.5-4.8 1.2-4.8 2.2 0 1.2 4.1 1.4 28.7 1.2 21.8-.2 28.7-.6 29.1-1.6.2-.6-.2-1.2-.8-1.2-3 0-7.9-3.4-9.1-6.3-1.7-3.8-1.6-9.8 1.1-74.7 1.1-26.1 2-48.5 2-49.8 0-1.6-.6-2.2-2.3-2.2-1.8 0-13.1 12.9-53.8 61.6zm25.7-5.9c-.3 7.1-.9 16.5-1.3 21l-.6 8.3H95.3c-9.1 0-16.3-.4-16.1-.9.4-1.1 34.2-41 34.7-41.1.2 0 .1 5.7-.3 12.7z"/></svg>